<?xml version="1.0" standalone="no"?><!DOCTYPE svg PUBLIC "-//W3C//DTD SVG 1.1//EN" "http://www.w3.org/Graphics/SVG/1.1/DTD/svg11.dtd"><svg t="1776858687345" class="icon" viewBox="0 0 1024 1024" version="1.1" xmlns="http://www.w3.org/2000/svg" p-id="15944" xmlns:xlink="http://www.w3.org/1999/xlink" width="200" height="200"><path d="M769.28 714.24H234.24c-17.92 0-35.84-2.56-53.76-8.96-81.92-24.32-139.52-102.4-139.52-188.16C40.96 409.6 128 321.28 236.8 320 258.56 202.24 362.24 111.36 486.4 111.36c104.96 0 197.12 64 235.52 158.72 12.8-2.56 24.32-2.56 37.12-2.56 122.88 0 224 99.84 224 222.72 0 98.56-62.72 184.32-156.16 213.76-16.64 6.4-37.12 10.24-57.6 10.24zM238.08 395.52c-66.56 0-121.6 53.76-121.6 121.6 0 52.48 35.84 101.12 85.76 115.2 10.24 3.84 20.48 5.12 30.72 5.12H768c11.52 0 21.76-2.56 33.28-6.4 64-20.48 104.96-76.8 104.96-140.8 0-80.64-66.56-147.2-147.2-147.2-16.64 0-33.28 2.56-49.92 8.96l-39.68 14.08-10.24-40.96c-19.2-80.64-90.88-138.24-174.08-138.24-96 0-176.64 78.08-177.92 175.36v46.08l-44.8-8.96c-7.68-2.56-16.64-3.84-24.32-3.84zM263.68 912.64c-6.4 0-12.8-1.28-19.2-5.12-17.92-10.24-24.32-33.28-14.08-51.2l42.24-72.96c10.24-17.92 33.28-24.32 51.2-14.08 17.92 10.24 24.32 33.28 14.08 51.2l-42.24 72.96c-6.4 12.8-19.2 19.2-32 19.2zM464.64 912.64c-6.4 0-12.8-1.28-19.2-5.12-17.92-10.24-24.32-33.28-14.08-52.48l42.24-72.96c10.24-17.92 33.28-24.32 52.48-14.08 17.92 10.24 24.32 33.28 14.08 52.48l-42.24 72.96c-7.68 12.8-20.48 19.2-33.28 19.2zM666.88 912.64c-6.4 0-12.8-1.28-19.2-5.12-17.92-10.24-24.32-33.28-14.08-51.2l42.24-72.96c10.24-17.92 33.28-24.32 51.2-14.08 17.92 10.24 24.32 33.28 14.08 51.2l-42.24 72.96c-6.4 12.8-19.2 19.2-32 19.2z" fill="#3D50F5" p-id="15945"></path></svg>